<?xml version="1.0" encoding="UTF-8" standalone="no"?>
<svg
   width="900"
   height="900"
   viewBox="0 0 900 900"
   version="1.1"
   xml:space="preserve"
   id="SVGRoot"
   xmlns:xlink="http://www.w3.org/1999/xlink"
   xmlns="http://www.w3.org/2000/svg"
   xmlns:svg="http://www.w3.org/2000/svg"><defs
   id="defs2"><linearGradient
     id="linearGradient11"><stop
       style="stop-color:#454545;stop-opacity:0.37716264;"
       offset="0"
       id="stop11" /><stop
       style="stop-color:#ffffff;stop-opacity:0;"
       offset="1"
       id="stop12" /></linearGradient><radialGradient
     xlink:href="#linearGradient11"
     id="radialGradient12"
     cx="453.34573"
     cy="450"
     fx="453.34573"
     fy="450"
     r="397.59979"
     gradientUnits="userSpaceOnUse" /></defs>

<style
   type="text/css"
   id="style1">
g.prefab path {
  vector-effect:non-scaling-stroke;
  -inkscape-stroke:hairline;
  fill: none;
  fill-opacity: 1;
  stroke-opacity: 1;
  stroke: #00349c;
}
</style>
<g
   style="fill:#ffffff;stroke:#000000;stroke-width:2"
   class="prefab"
   id="g2">
  <rect
   style="fill:#000000;fill-opacity:1;stroke:#ffffff;stroke-width:2;stroke-opacity:1"
   id="rect4"
   width="913.58026"
   height="913.58026"
   x="-7.4074073"
   y="-9.876543" />
  <path
   d="M 364.34384,837.42025 C 578.31017,886.5748 791.61173,752.96827 840.76597,539.00188 889.92052,325.03555 756.31399,111.73399 542.3476,62.579747 328.38127,13.4252 115.07971,147.03173 65.925468,360.99812 16.770918,574.96445 150.37745,788.26601 364.34384,837.42025 Z"
   id="path9"
   style="fill:url(#radialGradient12);fill-opacity:0;stroke:#757575;stroke-width:2.55543;stroke-opacity:0" /><path
   d="M 381.47788,762.83674 C 554.25286,802.52839 726.49106,694.64288 766.18246,521.86784 805.87411,349.09286 697.9886,176.85466 525.21356,137.16326 352.43858,97.471612 180.20038,205.35712 140.50898,378.13216 c -39.69165,172.77498 68.19386,345.01318 240.9689,384.70458 z"
   id="path2"
   style="stroke:#4d4d4d;stroke-width:2.06348;stroke-opacity:1" /><path
   d="M 853.57143,50.000001 H 53.571427 V 138.88889 H 853.57143 Z m 0,177.777779 H 53.571427 v 88.88889 H 853.57143 Z m 0,177.77778 H 53.571427 v 88.88889 H 853.57143 Z m 0,177.77777 H 53.571427 v 88.88889 H 853.57143 Z m 0,177.77778 H 53.571427 V 850 H 853.57143 Z M 53.571427,50 V 850 H 142.46032 V 50 Z M 231.34921,50 V 850 H 320.2381 V 50 Z m 177.77778,0 v 800 h 88.88888 V 50 Z m 177.77777,0 v 800 h 88.88889 V 50 Z m 177.77778,0 v 800 h 88.88889 V 50 Z"
   id="path1"
   style="fill:#ffffff;fill-opacity:0;stroke:#4d4d4d;stroke-width:2;stroke-opacity:1" />
<path
   style="fill:#000000;stroke:#4d4d4d;stroke-opacity:1"
   d="M 53.568601,850.0015 853.5686,49.999498"
   id="path3" /><path
   style="fill:#ffffff;stroke:#4d4d4d;stroke-opacity:1"
   d="M 53.569605,50.003515 853.57197,849.99582"
   id="path4" /><path
   d="M 423.4839,579.98684 C 495.27366,596.47912 566.84038,551.6516 583.33256,479.86182 599.82484,408.07206 554.99732,336.50534 483.20754,320.01316 411.41778,303.52088 339.85106,348.3484 323.35888,420.13818 306.8666,491.92794 351.69412,563.49466 423.4839,579.98684 Z"
   id="path6"
   style="fill:#ffffff;fill-opacity:0;stroke:#4d4d4d;stroke-width:0.857396;stroke-opacity:1" /><path
   d="M 371.80543,804.94034 C 567.8336,849.97394 763.25273,727.56851 808.28606,531.54029 853.31966,335.51212 730.91423,140.09299 534.88601,95.059661 338.85784,50.026061 143.43871,172.43149 98.405381,368.45971 53.371781,564.48788 175.77721,759.90701 371.80543,804.94034 Z"
   id="path7"
   style="fill:#ffffff;fill-opacity:0;stroke:#4d4d4d;stroke-width:2.34119;stroke-opacity:1" /><path
   d="M 381.47788,762.83674 C 554.25286,802.52839 726.49106,694.64288 766.18246,521.86784 805.87411,349.09286 697.9886,176.85466 525.21356,137.16326 352.43858,97.471612 180.20038,205.35712 140.50898,378.13216 c -39.69165,172.77498 68.19386,345.01318 240.9689,384.70458 z"
   id="path8"
   style="fill:#ffffff;fill-opacity:0;stroke:#4d4d4d;stroke-width:2.06348;stroke-opacity:1" /><path
   d="m 299.6017,218.13716 v 53.71347 l 85.34475,-74.60205 q 19.09813,-16.71086 45.35805,-26.25992 26.85674,-9.54906 52.51984,-9.54906 h 67.44026 q 62.66572,0 107.42695,44.76123 45.35805,44.76123 45.35805,106.83014 v 23.27584 q 0,25.6631 -14.32359,41.77715 -14.3236,15.51722 -37.00262,15.51722 -22.67902,0 -37.00262,-16.11404 -14.32359,-16.11404 -14.32359,-41.18033 v -23.27584 q 0,-19.69494 -14.92041,-34.61535 -14.92041,-15.51723 -35.21217,-15.51723 h -67.44026 q -8.35543,0 -19.69494,4.77453 -10.74269,4.17771 -16.71086,10.14588 L 299.6017,407.32796 V 681.2667 q 0,25.66311 -14.32359,41.18033 -14.3236,16.11405 -37.00262,16.11405 -22.67902,0 -37.00262,-16.11405 -14.32359,-16.11404 -14.32359,-41.18033 V 218.13716 q 0,-26.25993 13.72677,-41.18034 14.3236,-15.51722 37.59944,-15.51722 22.67902,0 37.00262,16.11404 14.32359,15.51723 14.32359,40.58352 z"
   id="text4"
   style="font-size:1222.28px;font-family:'OCR-A BT';-inkscape-font-specification:'OCR-A BT';fill:#ffffff;fill-opacity:1;stroke:#ffffff;stroke-width:2.35054;stroke-opacity:0"
   aria-label="r" /></g>
</svg>
